<svg xmlns="http://www.w3.org/2000/svg" width="318.982" height="238.271" viewBox="0 0 318.982 238.271">
    <g id="Gruppe_21" data-name="Gruppe 21" transform="translate(-713.606 -370.525)">
        <g id="Extension" transform="translate(753.526 370.567)">
            <g id="Ebene_5" transform="translate(0 -0.042)">
                <rect id="Rechteck_2" data-name="Rechteck 2" width="238.262" height="238.271" rx="119.131" transform="translate(0 0)" fill="none"/>
            </g>
            <g id="Gruppe_5" data-name="Gruppe 5" transform="translate(19.599 87.24)">
                <path id="Pfad_13" data-name="Pfad 13" d="M189.637,408.892c-65.029,0-100.421-34.5-100.8,9.164,1.776,46.932,32.792,42.979,44.292,39.71,10.931-3.1,47.892-14.3,47.892-14.3a18.872,18.872,0,0,1,13.152-.191c12.779,4.538,31.367,12.319,45.61,15.542,23.011,4.761,44.471-3.513,46.079-40.772C287.781,373.529,254.665,408.892,189.637,408.892Z" transform="translate(-88.834 -395.573)" fill="#ccc"/>
                <path id="Pfad_14" data-name="Pfad 14" d="M232.2,514.471a74.1,74.1,0,0,1-32.246,5.74,26.27,26.27,0,0,1-10.684-19.982c.25,0,50.052,6.529,53.609,7.519C243.569,507.938,239.123,511.506,232.2,514.471Z" transform="translate(-167.111 -477.139)" fill="#fff"/>
                <path id="Pfad_15" data-name="Pfad 15" d="M681.788,519.314s-13.847,1.781-33.238-6.529c-2.247-.964-10.539-5.93-9.286-6.187.153-.032,53.012-6.935,53.039-7.262C692.3,499.334,694.2,508.6,681.788,519.314Z" transform="translate(-517.728 -476.443)" fill="#fff"/>
            </g>
        </g>
        <path id="Pfad_1" data-name="Pfad 1" d="M19.893-1.025A14.374,14.374,0,0,1,13.125.41,10.914,10.914,0,0,1,4.751-2.957a12.423,12.423,0,0,1-3.145-8.835,13.021,13.021,0,0,1,3.538-9.5,12.007,12.007,0,0,1,8.972-3.623,14.385,14.385,0,0,1,5.776,1.008v3.059a11.714,11.714,0,0,0-5.811-1.47A8.916,8.916,0,0,0,7.238-19.5a10.623,10.623,0,0,0-2.623,7.537A10.108,10.108,0,0,0,7.067-4.828,8.345,8.345,0,0,0,13.5-2.17a12.071,12.071,0,0,0,6.392-1.641Zm13.74-13.638a3.427,3.427,0,0,0-2.119-.564,3.577,3.577,0,0,0-3,1.692,7.822,7.822,0,0,0-1.2,4.614V0h-2.8V-17.5h2.8v3.606h.068a6.111,6.111,0,0,1,1.829-2.88,4.17,4.17,0,0,1,2.751-1.034,4.576,4.576,0,0,1,1.675.239ZM50.74-8.049H38.384a6.545,6.545,0,0,0,1.572,4.512,5.42,5.42,0,0,0,4.136,1.589A8.6,8.6,0,0,0,49.526-3.9v2.632A10.157,10.157,0,0,1,43.425.41,7.4,7.4,0,0,1,37.6-1.974a9.758,9.758,0,0,1-2.119-6.708,9.569,9.569,0,0,1,2.316-6.656,7.425,7.425,0,0,1,5.751-2.572,6.579,6.579,0,0,1,5.315,2.222,9.263,9.263,0,0,1,1.88,6.169Zm-2.871-2.375A5.7,5.7,0,0,0,46.7-14.2a3.989,3.989,0,0,0-3.2-1.35,4.527,4.527,0,0,0-3.367,1.418,6.437,6.437,0,0,0-1.709,3.708ZM67.5,0H64.7V-2.734h-.068A5.868,5.868,0,0,1,59.25.41,5.753,5.753,0,0,1,55.157-.974a4.8,4.8,0,0,1-1.478-3.674q0-4.9,5.776-5.708l5.247-.735q0-4.46-3.606-4.46A8.615,8.615,0,0,0,55.388-13.4V-16.27a10.845,10.845,0,0,1,5.947-1.641q6.169,0,6.169,6.528ZM64.7-8.853l-4.221.581a6.853,6.853,0,0,0-2.939.966,2.785,2.785,0,0,0-.991,2.452,2.671,2.671,0,0,0,.914,2.094,3.533,3.533,0,0,0,2.435.812,4.5,4.5,0,0,0,3.444-1.461,5.221,5.221,0,0,0,1.359-3.7ZM80.9-.171a5.4,5.4,0,0,1-2.615.547q-4.6,0-4.6-5.127V-15.107H70.684V-17.5h3.008v-4.272l2.8-.906V-17.5H80.9v2.393H76.494v9.861a4.088,4.088,0,0,0,.6,2.512,2.387,2.387,0,0,0,1.982.752A2.947,2.947,0,0,0,80.9-2.563ZM98.711-8.049H86.355a6.545,6.545,0,0,0,1.572,4.512,5.42,5.42,0,0,0,4.136,1.589A8.6,8.6,0,0,0,97.5-3.9v2.632A10.157,10.157,0,0,1,91.4.41a7.4,7.4,0,0,1-5.828-2.384A9.758,9.758,0,0,1,83.45-8.682a9.569,9.569,0,0,1,2.316-6.656,7.425,7.425,0,0,1,5.751-2.572,6.579,6.579,0,0,1,5.315,2.222,9.263,9.263,0,0,1,1.88,6.169ZM95.84-10.425A5.7,5.7,0,0,0,94.669-14.2a3.989,3.989,0,0,0-3.2-1.35A4.527,4.527,0,0,0,88.1-14.133a6.437,6.437,0,0,0-1.709,3.708ZM126.465-17.5,118.416,2.8q-2.153,5.435-6.05,5.435a6.413,6.413,0,0,1-1.829-.222V5.5a5.2,5.2,0,0,0,1.658.308q2.119,0,3.179-2.529l1.4-3.315L109.939-17.5h3.11l4.734,13.467q.085.256.359,1.333h.1q.085-.41.342-1.3l4.973-13.5ZM136.787.41a8.117,8.117,0,0,1-6.2-2.452,9.084,9.084,0,0,1-2.316-6.5,9.463,9.463,0,0,1,2.41-6.887A8.663,8.663,0,0,1,137.2-17.91a7.849,7.849,0,0,1,6.11,2.41,9.554,9.554,0,0,1,2.2,6.682,9.4,9.4,0,0,1-2.367,6.708A8.294,8.294,0,0,1,136.787.41Zm.205-15.962a5.331,5.331,0,0,0-4.272,1.837,7.545,7.545,0,0,0-1.572,5.067,7.136,7.136,0,0,0,1.589,4.9,5.4,5.4,0,0,0,4.255,1.794,5.124,5.124,0,0,0,4.178-1.76,7.639,7.639,0,0,0,1.461-5.007,7.77,7.77,0,0,0-1.461-5.059A5.1,5.1,0,0,0,136.992-15.552ZM164.131,0h-2.8V-2.769h-.068a5.756,5.756,0,0,1-5.4,3.179Q149.6.41,149.6-7.041V-17.5h2.786V-7.485q0,5.537,4.238,5.537A4.288,4.288,0,0,0,160-3.461a5.787,5.787,0,0,0,1.324-3.956V-17.5h2.8Zm14.783-14.663a3.427,3.427,0,0,0-2.119-.564,3.577,3.577,0,0,0-3,1.692,7.822,7.822,0,0,0-1.2,4.614V0h-2.8V-17.5h2.8v3.606h.068a6.111,6.111,0,0,1,1.829-2.88,4.17,4.17,0,0,1,2.751-1.034,4.576,4.576,0,0,1,1.675.239Zm21.277-8.784a3.733,3.733,0,0,0-1.863-.461q-2.939,0-2.939,3.708v2.7h4.1v2.393h-4.1V0H192.6V-15.107h-2.991V-17.5H192.6v-2.837a5.9,5.9,0,0,1,1.589-4.349,5.366,5.366,0,0,1,3.965-1.6,5.492,5.492,0,0,1,2.034.308Zm3.743,1.5a1.776,1.776,0,0,1-1.282-.513,1.73,1.73,0,0,1-.53-1.3,1.758,1.758,0,0,1,.53-1.307,1.761,1.761,0,0,1,1.282-.521,1.81,1.81,0,0,1,1.307.521,1.744,1.744,0,0,1,.538,1.307,1.732,1.732,0,0,1-.538,1.282A1.8,1.8,0,0,1,203.933-21.943ZM205.3,0h-2.8V-17.5h2.8Zm14.8-14.663a3.427,3.427,0,0,0-2.119-.564,3.577,3.577,0,0,0-3,1.692,7.822,7.822,0,0,0-1.2,4.614V0h-2.8V-17.5h2.8v3.606h.068a6.111,6.111,0,0,1,1.829-2.88,4.17,4.17,0,0,1,2.751-1.034,4.576,4.576,0,0,1,1.675.239ZM222.083-.632V-3.64a8.294,8.294,0,0,0,5.042,1.692q3.691,0,3.691-2.461A2.135,2.135,0,0,0,230.5-5.6a3.151,3.151,0,0,0-.854-.863,6.577,6.577,0,0,0-1.265-.675q-.726-.3-1.564-.624a20.14,20.14,0,0,1-2.042-.931,6.17,6.17,0,0,1-1.47-1.06,3.943,3.943,0,0,1-.889-1.342,4.746,4.746,0,0,1-.3-1.76,4.181,4.181,0,0,1,.564-2.179,5,5,0,0,1,1.5-1.589,7.013,7.013,0,0,1,2.145-.966,9.514,9.514,0,0,1,2.487-.325,10.04,10.04,0,0,1,4.067.786v2.837a7.927,7.927,0,0,0-4.443-1.265,5.194,5.194,0,0,0-1.418.179,3.473,3.473,0,0,0-1.085.5,2.329,2.329,0,0,0-.7.778,2.048,2.048,0,0,0-.248,1,2.4,2.4,0,0,0,.248,1.145,2.521,2.521,0,0,0,.726.82,5.552,5.552,0,0,0,1.162.649q.684.291,1.555.632a21.645,21.645,0,0,1,2.085.914,7.151,7.151,0,0,1,1.572,1.06,4.14,4.14,0,0,1,1,1.359,4.382,4.382,0,0,1,.35,1.829,4.312,4.312,0,0,1-.573,2.256,4.907,4.907,0,0,1-1.53,1.589,7.005,7.005,0,0,1-2.2.94,10.885,10.885,0,0,1-2.615.308A9.929,9.929,0,0,1,222.083-.632Zm24.028.461A5.4,5.4,0,0,1,243.5.376q-4.6,0-4.6-5.127V-15.107h-3.008V-17.5H238.9v-4.272l2.8-.906V-17.5h4.409v2.393H241.7v9.861a4.088,4.088,0,0,0,.6,2.512,2.387,2.387,0,0,0,1.982.752,2.947,2.947,0,0,0,1.829-.581Zm21.978-23.276a3.733,3.733,0,0,0-1.863-.461q-2.939,0-2.939,3.708v2.7h4.1v2.393h-4.1V0H260.5V-15.107H257.51V-17.5H260.5v-2.837a5.9,5.9,0,0,1,1.589-4.349,5.366,5.366,0,0,1,3.965-1.6,5.492,5.492,0,0,1,2.034.308Zm3.743,1.5a1.776,1.776,0,0,1-1.282-.513,1.73,1.73,0,0,1-.53-1.3,1.758,1.758,0,0,1,.53-1.307,1.76,1.76,0,0,1,1.282-.521,1.81,1.81,0,0,1,1.307.521,1.744,1.744,0,0,1,.538,1.307,1.732,1.732,0,0,1-.538,1.282A1.8,1.8,0,0,1,271.831-21.943ZM273.2,0h-2.8V-17.5h2.8Zm19.739-8.049H280.581a6.545,6.545,0,0,0,1.572,4.512,5.42,5.42,0,0,0,4.136,1.589A8.6,8.6,0,0,0,291.724-3.9v2.632a10.157,10.157,0,0,1-6.1,1.675,7.4,7.4,0,0,1-5.828-2.384,9.758,9.758,0,0,1-2.119-6.708,9.569,9.569,0,0,1,2.316-6.656,7.425,7.425,0,0,1,5.751-2.572,6.579,6.579,0,0,1,5.315,2.222,9.263,9.263,0,0,1,1.88,6.169Zm-2.871-2.375A5.7,5.7,0,0,0,288.9-14.2a3.989,3.989,0,0,0-3.2-1.35,4.527,4.527,0,0,0-3.367,1.418,6.437,6.437,0,0,0-1.709,3.708ZM299.978,0h-2.8V-25.908h2.8Zm20.61,0h-2.8V-2.974h-.068A6.47,6.47,0,0,1,311.7.41a6.536,6.536,0,0,1-5.272-2.35,9.64,9.64,0,0,1-1.974-6.4,10.487,10.487,0,0,1,2.188-6.956,7.215,7.215,0,0,1,5.828-2.615,5.61,5.61,0,0,1,5.247,2.837h.068V-25.908h2.8Zm-2.8-7.913v-2.581a5.007,5.007,0,0,0-1.4-3.589,4.7,4.7,0,0,0-3.555-1.47,4.84,4.84,0,0,0-4.033,1.88,8.238,8.238,0,0,0-1.47,5.2,7.409,7.409,0,0,0,1.41,4.777,4.608,4.608,0,0,0,3.785,1.752,4.787,4.787,0,0,0,3.8-1.692A6.3,6.3,0,0,0,317.786-7.913Z" transform="translate(712 587)" fill="#ccc"/>
    </g>
</svg>
