<svg id="Ebene_51" width="30" data-name="Ebene 51" xmlns="http://www.w3.org/2000/svg" viewBox="0 0 14 14"><defs><style>.cls-1{fill:#f08300;}</style></defs><path class="cls-1" d="M15,2.71c0-.74-.77-1.17-1.86-1.4h0a8.83,8.83,0,0,0-.94-.14A19.12,19.12,0,0,0,3.44,2h0A5.12,5.12,0,0,0,1.29,3.28,2,2,0,0,0,1,4.44a12.16,12.16,0,0,0,.92,4h0v0c1.6,4.38,3.66,5.94,3.66,5.94h0A2.24,2.24,0,0,0,7,15a1.9,1.9,0,0,0,.93-.3,6.32,6.32,0,0,0,1.24-.95l0,0a1.85,1.85,0,0,0,.14-.14c.05-.05.11-.1.17-.17h0A22.42,22.42,0,0,0,14.28,6a10.24,10.24,0,0,0,.59-2V4h0A7.66,7.66,0,0,0,15,2.71ZM12,5.15,7.26,9.89a.35.35,0,0,1-.51,0L4.11,7.22a.36.36,0,0,1,0-.52l.44-.51a.35.35,0,0,1,.51,0L6.89,8.11l4-4a.36.36,0,0,1,.52,0l.51.52A.44.44,0,0,1,12,5.15Z" transform="translate(-1 -1)"/></svg>
