<?xml version="1.0" encoding="utf-8"?>
<!-- Generator: Adobe Illustrator 15.0.0, SVG Export Plug-In . SVG Version: 6.00 Build 0)  -->
<!DOCTYPE svg PUBLIC "-//W3C//DTD SVG 1.1//EN" "http://www.w3.org/Graphics/SVG/1.1/DTD/svg11.dtd">
<svg version="1.1" id="Ebene_1" xmlns="http://www.w3.org/2000/svg" xmlns:xlink="http://www.w3.org/1999/xlink" x="0px" y="0px"
	 width="64px" height="64px" viewBox="0 0 64 64" enable-background="new 0 0 64 64" xml:space="preserve">
<rect fill="#A3D18B" width="64" height="64"/>
<line fill="#FFFFFF" x1="37.001" y1="34.167" x2="37.001" y2="37.167"/>
<g>
	<g>
		<path fill="#FFFFFF" d="M27.5,27.167V16.5c0-1.93,1.57-3.5,3.5-3.5h17.166c1.93,0,3.5,1.57,3.5,3.5v17.167
			c0,1.93-1.57,3.5-3.5,3.5H37.001 M37.001,34.166h11.166c0.275,0,0.5-0.225,0.5-0.5V16.5c0-0.276-0.225-0.5-0.5-0.5H31.001
			c-0.276,0-0.5,0.224-0.5,0.5v10.667"/>
	</g>
	<path fill="#FFFFFF" d="M30.506,27.167h3.495c1.657,0,3,1.343,3,3v4v3v11.166c0,1.657-1.343,3-3,3H15.834c-1.657,0-3-1.343-3-3
		V30.167c0-1.657,1.343-3,3-3h11.584H30.506z"/>
</g>
<line fill="#FFFFFF" x1="27.418" y1="27.167" x2="30.506" y2="27.167"/>
<g>
	<path fill="#A3D18B" d="M33.657,35.286l-1.987-1.987c-0.235-0.235-0.618-0.235-0.853,0l-8.279,8.279l-3.522-3.521
		c-0.235-0.234-0.617-0.234-0.852,0l-1.987,1.988c-0.235,0.235-0.235,0.616,0,0.852l5.935,5.936
		c0.118,0.117,0.271,0.177,0.426,0.177c0.154,0,0.308-0.06,0.426-0.177l10.693-10.693c0.112-0.113,0.176-0.267,0.176-0.426
		C33.833,35.553,33.77,35.399,33.657,35.286z"/>
</g>
</svg>
