<svg width="64" height="64" xmlns="http://www.w3.org/2000/svg">
    <g>
        <g id="svg_1">
            <path stroke="null" id="svg_2" d="m-1.300509,-1.340908l65.527771,0l0,66.361106l-65.527771,0l0,-66.361106z"
                  stroke-opacity="null" stroke-linecap="null" stroke-linejoin="null" stroke-width="null"
                  fill="#95AAB1"/>
            <g stroke="null" id="svg_3">
                <g stroke="null" id="svg_4">
                    <path stroke="null" id="svg_5"
                          d="m10.369043,32.372234l4.433298,-2.212224l17.728767,8.862171l17.724342,-8.862171l4.433298,2.212224l-22.15764,11.07882l-22.162065,-11.07882zm0,-8.800229l22.159852,-11.07882l22.15764,11.07882l-22.15764,11.016878l-22.159852,-11.016878zm22.159852,-6.652159l-13.297681,6.652159l13.299893,6.590217l13.291045,-6.590217l-13.293257,-6.652159zm0,30.962294l17.724342,-8.859959l4.433298,2.212224l-22.15764,11.07882l-22.159852,-11.07882l4.433298,-2.212224l17.726555,8.859959z"
                          fill="#FFFFFF"/>
                </g>
            </g>
        </g>
    </g>
</svg>
