<?xml version="1.0" encoding="utf-8"?>
<!-- Generator: Adobe Illustrator 15.0.0, SVG Export Plug-In . SVG Version: 6.00 Build 0)  -->
<!DOCTYPE svg PUBLIC "-//W3C//DTD SVG 1.1//EN" "http://www.w3.org/Graphics/SVG/1.1/DTD/svg11.dtd">
<svg version="1.1" id="Ebene_1" xmlns="http://www.w3.org/2000/svg" xmlns:xlink="http://www.w3.org/1999/xlink" x="0px" y="0px"
	 width="64px" height="64px" viewBox="0 0 64 64" enable-background="new 0 0 64 64" xml:space="preserve">
<rect fill="#E286B7" width="64" height="64"/>
<g>
	<g id="_x31_5_38_">
		<g>
			<path fill="#FFFFFF" d="M17.626,16.8h0.359c0.545,0,0.988-0.442,0.988-0.987v-2.728v-1.02c0-0.546-0.442-0.988-0.988-0.988
				h-0.359c-0.546,0-0.989,0.442-0.989,0.988v1.02v2.728C16.638,16.358,17.08,16.8,17.626,16.8z"/>
			<path fill="#FFFFFF" d="M30.302,16.776h0.359c0.546,0,0.987-0.442,0.987-0.988v-2.961v-0.786c0-0.546-0.443-0.989-0.987-0.989
				h-0.359c-0.547,0-0.988,0.442-0.988,0.989v0.786v2.961C29.314,16.333,29.755,16.776,30.302,16.776z"/>
			<path fill="#FFFFFF" d="M26.951,34.105H13.097v-14.66H34.99l-0.001,7.531c0.479-0.257,1.049-0.363,1.606-0.306V14.692
				c0-0.887-0.721-1.607-1.607-1.607h-2.535v2.961c0,0.988-0.804,1.533-1.792,1.533h-0.359c-0.988,0-1.791-0.804-1.791-1.792v-2.703
				h-8.735v2.728c0,0.988-0.803,1.791-1.791,1.791h-0.359c-0.988,0-1.792-0.803-1.792-1.791v-2.728h-2.737
				c-0.885,0-1.606,0.721-1.606,1.607v19.414c0,0.885,0.72,1.607,1.606,1.607h13.317C26.417,35.131,26.599,34.557,26.951,34.105z"/>
			<path fill="#FFFFFF" d="M24.873,24.363h2.884c0.114,0,0.208-0.093,0.208-0.208v-2.499c0-0.114-0.094-0.207-0.208-0.207h-2.884
				c-0.115,0-0.207,0.092-0.207,0.207v2.499C24.666,24.27,24.758,24.363,24.873,24.363z"/>
			<path fill="#FFFFFF" d="M29.581,24.363h2.886c0.113,0,0.205-0.093,0.205-0.208v-2.499c0-0.114-0.092-0.207-0.205-0.207h-2.886
				c-0.113,0-0.206,0.092-0.206,0.207v2.499C29.375,24.27,29.467,24.363,29.581,24.363z"/>
			<path fill="#FFFFFF" d="M15.457,28.452h2.884c0.115,0,0.208-0.091,0.208-0.206v-2.498c0-0.115-0.093-0.208-0.208-0.208h-2.884
				c-0.114,0-0.207,0.093-0.207,0.208v2.498C15.25,28.361,15.343,28.452,15.457,28.452z"/>
			<path fill="#FFFFFF" d="M20.166,28.452h2.884c0.114,0,0.208-0.091,0.208-0.206v-2.498c0-0.115-0.093-0.208-0.208-0.208h-2.884
				c-0.115,0-0.208,0.093-0.208,0.208v2.498C19.958,28.361,20.05,28.452,20.166,28.452z"/>
			<path fill="#FFFFFF" d="M24.873,28.452h2.884c0.114,0,0.208-0.091,0.208-0.206v-2.498c0-0.115-0.094-0.208-0.208-0.208h-2.884
				c-0.115,0-0.207,0.093-0.207,0.208v2.498C24.666,28.361,24.758,28.452,24.873,28.452z"/>
			<path fill="#FFFFFF" d="M29.581,28.452h2.886c0.113,0,0.205-0.091,0.205-0.206v-2.498c0-0.115-0.092-0.208-0.205-0.208h-2.886
				c-0.113,0-0.206,0.093-0.206,0.208v2.498C29.375,28.361,29.467,28.452,29.581,28.452z"/>
			<path fill="#FFFFFF" d="M18.341,29.628h-2.884c-0.114,0-0.207,0.094-0.207,0.209v2.497c0,0.115,0.092,0.209,0.207,0.209h2.884
				c0.115,0,0.208-0.094,0.208-0.209v-2.497C18.549,29.722,18.456,29.628,18.341,29.628z"/>
			<path fill="#FFFFFF" d="M23.049,29.628h-2.884c-0.115,0-0.208,0.094-0.208,0.209v2.497c0,0.115,0.093,0.209,0.208,0.209h2.884
				c0.114,0,0.208-0.094,0.208-0.209v-2.497C23.257,29.722,23.164,29.628,23.049,29.628z"/>
			<path fill="#FFFFFF" d="M27.757,29.628h-2.884c-0.115,0-0.207,0.094-0.207,0.209v2.497c0,0.115,0.092,0.209,0.207,0.209h2.884
				c0.115,0,0.208-0.094,0.208-0.209v-2.497C27.965,29.722,27.873,29.628,27.757,29.628z"/>
		</g>
	</g>
</g>
<g>
	<g>
		<path fill="#FFFFFF" d="M49.139,32.704c-1.127-1.934-2.658-3.467-4.594-4.595c-1.934-1.129-4.047-1.693-6.336-1.693
			c-2.291,0-4.404,0.564-6.338,1.693c-1.935,1.128-3.466,2.66-4.595,4.595c-1.129,1.934-1.693,4.047-1.693,6.338
			s0.564,4.402,1.693,6.338c1.129,1.934,2.66,3.465,4.595,4.594c1.934,1.129,4.047,1.693,6.336,1.693
			c2.291,0,4.404-0.564,6.338-1.693c1.936-1.129,3.467-2.66,4.594-4.594c1.129-1.936,1.693-4.049,1.693-6.338
			C50.834,36.751,50.268,34.638,49.139,32.704z M45.951,43.528c-0.801,1.371-1.885,2.455-3.256,3.256
			c-1.369,0.801-2.865,1.199-4.488,1.199c-1.621,0-3.117-0.398-4.486-1.199c-1.371-0.801-2.456-1.885-3.255-3.256
			c-0.8-1.369-1.2-2.865-1.2-4.486c0-1.623,0.4-3.119,1.2-4.488s1.884-2.456,3.255-3.255c1.369-0.801,2.865-1.2,4.486-1.2
			c1.623,0,3.119,0.399,4.488,1.2c1.371,0.799,2.455,1.886,3.256,3.255c0.799,1.369,1.199,2.865,1.199,4.488
			C47.15,40.663,46.75,42.159,45.951,43.528z"/>
		<path fill="#FFFFFF" d="M39.787,32.729h-1.053c-0.154,0-0.279,0.049-0.379,0.146c-0.098,0.1-0.148,0.225-0.148,0.379v5.787h-3.682
			c-0.152,0-0.279,0.049-0.377,0.146c-0.1,0.1-0.148,0.225-0.148,0.379v1.053c0,0.152,0.049,0.279,0.148,0.377
			c0.098,0.1,0.225,0.148,0.377,0.148h5.262c0.152,0,0.279-0.049,0.377-0.148c0.1-0.098,0.148-0.225,0.148-0.377v-7.365
			c0-0.154-0.049-0.279-0.148-0.379C40.066,32.778,39.939,32.729,39.787,32.729z"/>
	</g>
</g>
</svg>
