<?xml version="1.0" encoding="utf-8"?>
<!-- Generator: Adobe Illustrator 15.0.0, SVG Export Plug-In . SVG Version: 6.00 Build 0)  -->
<!DOCTYPE svg PUBLIC "-//W3C//DTD SVG 1.1//EN" "http://www.w3.org/Graphics/SVG/1.1/DTD/svg11.dtd">
<svg version="1.1" id="Ebene_1" xmlns="http://www.w3.org/2000/svg" xmlns:xlink="http://www.w3.org/1999/xlink" x="0px"
     y="0px"
     width="64px" height="64px" viewBox="0 0 64 64" enable-background="new 0 0 64 64" xml:space="preserve">
<g>
	<rect fill="#8DB3F7" width="64" height="64"/>
    <path fill="#FFFFFF" d="M38.489,21.328c-0.576,0-1.088-0.467-1.088-1.042v-5.625H20.433c-0.575,0-1.088,0.466-1.088,1.042v32.082
		c0,0.575,0.487,1.075,1.062,1.077l22.94,0.104c0.001,0,0.002,0,0.002,0c0.277,0,0.519-0.143,0.714-0.337
		c0.196-0.194,0.283-0.496,0.283-0.773V21.328H38.489z M38.558,39.8h-13.75c-0.575,0-1.042-0.466-1.042-1.041
		s0.466-1.042,1.042-1.042h13.75c0.576,0,1.042,0.467,1.042,1.042S39.134,39.8,38.558,39.8z M38.558,35.216h-13.75
		c-0.575,0-1.042-0.465-1.042-1.042c0-0.575,0.466-1.04,1.042-1.04h13.75c0.576,0,1.042,0.465,1.042,1.04
		C39.6,34.751,39.134,35.216,38.558,35.216z M38.558,30.633h-13.75c-0.575,0-1.042-0.466-1.042-1.042
		c0-0.575,0.466-1.041,1.042-1.041h13.75c0.576,0,1.042,0.465,1.042,1.041C39.6,30.167,39.134,30.633,38.558,30.633z M38.558,26.328
		h-13.75c-0.575,0-1.042-0.466-1.042-1.042c0-0.575,0.466-1.042,1.042-1.042h13.75c0.576,0,1.042,0.466,1.042,1.042
		C39.6,25.861,39.134,26.328,38.558,26.328z M43.965,19.245h-4.481v-4.252L43.965,19.245z"/>
</g>
</svg>
