<svg xmlns="http://www.w3.org/2000/svg" width="64" height="64" viewBox="0 0 64 64">
  <g id="Group" transform="translate(-635 -456)">
    <rect id="Rechteck_1" data-name="Rechteck 1" width="64" height="64" transform="translate(635 456)" fill="#bf6bcf"/>
    <path id="Group-2" data-name="Group" d="M17.725,3.8c7.689,0,13.927,2.194,13.927,4.883v.362c0,2.69-6.238,4.883-13.927,4.883S3.8,11.733,3.8,9.043V8.682C3.8,5.992,10.036,3.8,17.725,3.8M31.652,14.482v2.089c0,2.69-6.238,4.883-13.927,4.883S3.8,19.261,3.8,16.571V14.482c2.992,2.213,8.469,3.243,13.927,3.243s10.935-1.03,13.927-3.243m0,7.6V24.2c0,2.69-6.238,4.883-13.927,4.883S3.8,26.892,3.8,24.2V22.079c2.992,2.213,8.469,3.243,13.927,3.243s10.935-1.03,13.927-3.243m0,7.6v2.158c0,2.69-6.238,4.883-13.927,4.883S3.8,34.522,3.8,31.833V29.675c2.992,2.213,8.469,3.243,13.927,3.243s10.935-1.03,13.927-3.243M17.725,0C10.845,0,0,1.841,0,8.682V31.833c0,6.843,10.843,8.682,17.725,8.682S35.45,38.674,35.45,31.833V8.682C35.45,1.839,24.607,0,17.725,0Z" transform="translate(649.275 467.743)" fill="#fff"/>
  </g>
</svg>
