<svg xmlns="http://www.w3.org/2000/svg" xmlns:xlink="http://www.w3.org/1999/xlink" version="1.1" width="64" height="64"
     enable-background="new 0 0 64 64" xml:space="preserve"><rect id="backgroundrect" width="100%" height="100%" x="0" y="0" fill="none" stroke="none" class=""/>
    <g class="currentLayer"><title>Layer 1</title>
        <rect fill="#9E97D1" width="64" height="64" id="svg_2" class=""/>

        <path d="M22.687008137627398,44.53312968968355 c-3.5339308119295336,-2.7608189515250734 -5.795425142006913,-6.994092593540351 -5.795425142006913,-11.741744457420616 c0,-7.018010912111921 4.948610084488951,-12.897617358278136 11.637065354146342,-14.574049619507903 V14.335043139891098 C19.67583341839441,16.07973666985321 13.012561210905037,23.680118327409968 13.012561210905037,32.79138523226294 c0,5.630479689808411 2.54570317454501,10.679394869629451 6.5772070170030705,14.130082627595181 C22.710254041167104,49.74409819645578 24.649626565051374,45.97709739400987 22.687008137627398,44.53312968968355 zM45.06229724238467,18.52531755750805 c-1.9869712787512954,-1.7428123138946852 -4.896306801524607,1.0825054742278781 -2.9890357634808846,2.4821302283934177 c3.5665857716638856,2.7600127160676045 5.851049268334073,7.013442244519599 5.851049268334073,11.783937446361472 c0,7.019085892721878 -4.949440295329655,12.899767319498054 -11.637342091093242,14.575124600117865 v3.8830987083214037 c8.852814931372416,-1.7465747460295389 15.516087138861792,-9.345881422976342 15.516087138861792,-18.458492053591755 C51.80305579500641,27.086463135214924 49.18927533152368,21.978692766998673 45.06229724238467,18.52531755750805 zM30.24248026192654,21.471033173945926 l6.313199969659235,-3.671327528159644 c0.9184899267653969,-0.5342653631492115 0.9204270853937061,-1.404462166910351 0.004981265044223309,-1.9424899621944154 L30.18907003117459,12.11225198365009 c-0.9165527681370873,-0.537221559826597 -1.6562706272042496,-0.13168512471987592 -1.65184283605383,0.9086273605671445 l0.03431538141576063,7.534270350044332 C28.574309946005542,21.59492468924361 29.322883387373537,22.00529853709514 30.24248026192654,21.471033173945926 zM34.62765392252445,44.13216192216916 l-6.3724216762961134,3.744963699941779 c-0.9162760311901866,0.5380277952840645 -0.9143388725618786,1.407955853892715 0.00525800199112461,1.9424899621944154 l6.312646495765433,3.671596273312134 c0.9184899267653969,0.5331903825392527 1.6687237898148064,0.12416026045016912 1.673428317912129,-0.9169584602943199 l0.033208433628155516,-7.5340016048918415 C36.283094338888,44.00074554260177 35.54226953203324,43.59494036234256 34.62765392252445,44.13216192216916 z"
              id="svg_3" class="" fill="#ffffff" fill-opacity="1"/>

</g></svg>
