<?xml version="1.0" encoding="utf-8"?>
<!-- Generator: Adobe Illustrator 15.0.0, SVG Export Plug-In . SVG Version: 6.00 Build 0)  -->
<!DOCTYPE svg PUBLIC "-//W3C//DTD SVG 1.1//EN" "http://www.w3.org/Graphics/SVG/1.1/DTD/svg11.dtd">
<svg version="1.1" id="Ebene_1" xmlns="http://www.w3.org/2000/svg" xmlns:xlink="http://www.w3.org/1999/xlink" x="0px" y="0px"
	  width="64px" height="64px" viewBox="0 0 64 64" enable-background="new 0 0 64 64" xml:space="preserve">
<g>
	<rect fill="#9E97D1" width="64" height="64"/>
	<path fill="none" stroke="#FFFFFF" stroke-width="2.5" stroke-miterlimit="10" d="M45.574,45.799c0,1.328-1.077,2.406-2.406,2.406
		H19.907c-1.329,0-2.407-1.078-2.407-2.406V18.526c0-1.329,1.078-2.407,2.407-2.407h23.261c1.329,0,2.406,1.078,2.406,2.407V45.799z
		"/>
	<path fill="#FFFFFF" d="M39.157,22.526c0,0.748-0.605,1.354-1.354,1.354H23.165c-0.748,0-1.354-0.606-1.354-1.354l0,0
		c0-0.748,0.605-1.354,1.354-1.354h14.639C38.552,21.173,39.157,21.778,39.157,22.526L39.157,22.526z"/>
	<path fill="#FFFFFF" d="M39.157,42.186c0,0.748-0.605,1.354-1.354,1.354H23.165c-0.748,0-1.354-0.605-1.354-1.354l0,0
		c0-0.746,0.605-1.354,1.354-1.354h14.639C38.552,40.832,39.157,41.439,39.157,42.186L39.157,42.186z"/>
	<path fill="#FFFFFF" d="M41.803,27.714c0,0.672-0.545,1.217-1.217,1.217H27.567c-0.672,0-1.217-0.545-1.217-1.217l0,0
		c0-0.672,0.545-1.218,1.217-1.218h13.019C41.258,26.497,41.803,27.042,41.803,27.714L41.803,27.714z"/>
	<path fill="#FFFFFF" d="M41.803,31.419c0,0.671-0.545,1.218-1.217,1.218H27.567c-0.672,0-1.217-0.547-1.217-1.218l0,0
		c0-0.673,0.545-1.218,1.217-1.218h13.019C41.258,30.201,41.803,30.746,41.803,31.419L41.803,31.419z"/>
	<path fill="#FFFFFF" d="M41.873,35.096c0,0.672-0.545,1.217-1.217,1.217H27.638c-0.672,0-1.218-0.545-1.218-1.217l0,0
		c0-0.674,0.545-1.219,1.218-1.219h13.018C41.328,33.877,41.873,34.422,41.873,35.096L41.873,35.096z"/>
</g>
</svg>
