<?xml version="1.0" encoding="utf-8"?>
<!-- Generator: Adobe Illustrator 15.0.0, SVG Export Plug-In . SVG Version: 6.00 Build 0)  -->
<!DOCTYPE svg PUBLIC "-//W3C//DTD SVG 1.1//EN" "http://www.w3.org/Graphics/SVG/1.1/DTD/svg11.dtd">
<svg version="1.1" id="Ebene_1" xmlns="http://www.w3.org/2000/svg" xmlns:xlink="http://www.w3.org/1999/xlink" x="0px" y="0px"
	  width="64px" height="64px" viewBox="0 0 64 64" enable-background="new 0 0 64 64" xml:space="preserve">
<g>
	<rect y="-0.5" fill="#FF906F" width="64" height="64"/>
	<g>
		<path fill="#FFFFFF" d="M12.513,41.089V38.29h4.295V27.456l-3.74,2.063l-1.032-2.566l5.353-2.825h2.644V38.29h3.702v2.799H12.513z
			"/>
		<path fill="#FFFFFF" d="M26.738,41.089v-2.322l3.985-3.985c0.748-0.748,1.348-1.393,1.8-1.935
			c0.451-0.542,0.799-1.025,1.045-1.451c0.244-0.426,0.406-0.819,0.482-1.18c0.078-0.361,0.117-0.735,0.117-1.122
			c0-0.318-0.053-0.621-0.155-0.909s-0.254-0.538-0.451-0.748c-0.198-0.211-0.447-0.378-0.748-0.503
			c-0.302-0.125-0.645-0.187-1.032-0.187c-0.662,0-1.277,0.145-1.844,0.432c-0.567,0.288-1.105,0.673-1.612,1.154l-1.664-2.141
			c0.73-0.679,1.554-1.223,2.47-1.632c0.916-0.408,1.907-0.612,2.973-0.612c0.826,0,1.574,0.105,2.244,0.316
			c0.671,0.21,1.245,0.522,1.723,0.935c0.477,0.413,0.846,0.929,1.109,1.547c0.262,0.619,0.393,1.333,0.393,2.141
			c0,0.671-0.09,1.296-0.271,1.876c-0.181,0.581-0.443,1.146-0.787,1.696c-0.344,0.551-0.767,1.101-1.271,1.651
			c-0.503,0.55-1.076,1.131-1.722,1.741l-2.45,2.334h7.106v2.902H26.738z"/>
		<path fill="#FFFFFF" d="M52.752,35.942c0,0.834-0.154,1.585-0.463,2.251c-0.311,0.666-0.785,1.233-1.426,1.702
			s-1.447,0.828-2.418,1.077c-0.973,0.249-2.115,0.374-3.431,0.374c-0.292,0-0.6-0.007-0.923-0.02
			c-0.322-0.013-0.643-0.03-0.961-0.052c-0.317-0.021-0.627-0.047-0.928-0.077s-0.572-0.066-0.812-0.109v-2.734
			c0.541,0.104,1.15,0.187,1.824,0.251c0.676,0.064,1.379,0.097,2.109,0.097c0.713,0,1.328-0.06,1.844-0.18
			c0.516-0.121,0.941-0.295,1.277-0.522c0.334-0.229,0.582-0.51,0.74-0.845c0.16-0.336,0.24-0.714,0.24-1.136
			c0-0.369-0.082-0.704-0.246-1.006c-0.162-0.301-0.412-0.557-0.748-0.768c-0.336-0.21-0.764-0.374-1.283-0.489
			c-0.52-0.116-1.137-0.175-1.85-0.175h-1.871v-2.399h1.716c0.671,0,1.228-0.066,1.669-0.2c0.443-0.133,0.797-0.312,1.059-0.535
			c0.262-0.223,0.449-0.488,0.561-0.793s0.168-0.625,0.168-0.961c0-0.688-0.225-1.21-0.67-1.567
			c-0.447-0.357-1.141-0.536-2.076-0.536c-0.672,0-1.334,0.065-1.986,0.194c-0.654,0.129-1.329,0.301-2.025,0.516v-2.644
			c0.387-0.129,0.756-0.236,1.109-0.322c0.353-0.086,0.705-0.159,1.058-0.219s0.709-0.103,1.07-0.129s0.735-0.039,1.122-0.039
			c0.928,0,1.742,0.099,2.443,0.296s1.289,0.479,1.768,0.845c0.477,0.366,0.836,0.811,1.076,1.335s0.361,1.109,0.361,1.754
			c0,1.023-0.234,1.851-0.703,2.483s-1.123,1.116-1.967,1.451c0.543,0.086,1.031,0.234,1.471,0.445
			c0.439,0.211,0.814,0.481,1.129,0.812c0.312,0.331,0.555,0.712,0.723,1.142C52.668,34.941,52.752,35.418,52.752,35.942z"/>
	</g>
</g>
</svg>
