<?xml version="1.0" encoding="utf-8"?>
<!-- Generator: Adobe Illustrator 15.0.0, SVG Export Plug-In . SVG Version: 6.00 Build 0)  -->
<!DOCTYPE svg PUBLIC "-//W3C//DTD SVG 1.1//EN" "http://www.w3.org/Graphics/SVG/1.1/DTD/svg11.dtd">
<svg version="1.1" id="Ebene_1" xmlns="http://www.w3.org/2000/svg" xmlns:xlink="http://www.w3.org/1999/xlink" x="0px" y="0px"
	 width="64px" height="64px" viewBox="0 0 64 64" enable-background="new 0 0 64 64" xml:space="preserve">
<g>
	<rect y="-0.5" fill="#FF906F" width="64" height="64"/>
	<g>
		<path fill="#FFFFFF" d="M17.662,24.499v14.244h2.628c0.626,0,1.072,0.12,1.34,0.362c0.266,0.24,0.399,0.556,0.399,0.945
			c0,0.381-0.134,0.691-0.399,0.934c-0.268,0.24-0.714,0.361-1.34,0.361h-7.858c-0.626,0-1.073-0.121-1.339-0.361
			c-0.268-0.242-0.4-0.557-0.4-0.946c0-0.381,0.133-0.692,0.4-0.933c0.266-0.242,0.713-0.362,1.339-0.362h2.628V27.889l-2.323,0.609
			c-0.372,0.102-0.651,0.152-0.838,0.152c-0.33,0-0.616-0.131-0.856-0.394c-0.242-0.262-0.362-0.584-0.362-0.965
			c0-0.347,0.089-0.62,0.267-0.819s0.55-0.375,1.117-0.527L17.662,24.499z"/>
		<path fill="#FFFFFF" d="M28.553,38.743h5.7c0.313-0.254,0.609-0.381,0.889-0.381c0.397,0,0.713,0.131,0.945,0.394
			c0.233,0.263,0.35,0.711,0.35,1.346v1.244H24.579v-2.755c4.688-3.868,7.52-6.356,8.493-7.465c0.491-0.567,0.736-1.104,0.736-1.612
			c0-0.635-0.277-1.195-0.831-1.682c-0.555-0.487-1.293-0.73-2.216-0.73c-0.931,0-1.705,0.271-2.323,0.812
			c-0.321,0.288-0.58,0.715-0.774,1.282c-0.118,0.355-0.281,0.609-0.489,0.762c-0.207,0.152-0.463,0.229-0.768,0.229
			c-0.355,0-0.662-0.127-0.92-0.381c-0.259-0.254-0.388-0.55-0.388-0.889c0-0.508,0.235-1.143,0.704-1.904
			c0.471-0.762,1.156-1.371,2.057-1.828c0.902-0.457,1.882-0.686,2.939-0.686c1.642,0,2.987,0.497,4.037,1.492
			s1.574,2.198,1.574,3.612c0,0.719-0.15,1.386-0.451,2c-0.3,0.614-1.021,1.462-2.164,2.545
			C32.898,35.002,31.151,36.534,28.553,38.743z"/>
		<path fill="#FFFFFF" d="M49.052,32.649c0.771,0.524,1.346,1.132,1.727,1.821c0.381,0.69,0.571,1.463,0.571,2.317
			c0,0.923-0.252,1.775-0.756,2.558c-0.503,0.783-1.233,1.376-2.189,1.777c-0.956,0.402-2.209,0.604-3.758,0.604
			c-2.015,0-3.529-0.313-4.545-0.939c-0.567-0.355-0.851-0.778-0.851-1.27c0-0.372,0.125-0.688,0.374-0.945
			c0.25-0.259,0.553-0.388,0.908-0.388c0.245,0,0.499,0.085,0.762,0.254c0.372,0.254,0.724,0.423,1.054,0.508
			c0.508,0.118,1.206,0.178,2.095,0.178c1.515,0,2.611-0.196,3.288-0.591c0.677-0.393,1.016-0.949,1.016-1.669
			c0-0.533-0.196-1.048-0.591-1.542c-0.393-0.496-0.92-0.879-1.58-1.149c-0.381-0.152-1.024-0.258-1.93-0.317
			c-0.432-0.025-0.764-0.158-0.996-0.4c-0.233-0.24-0.35-0.539-0.35-0.895c0-0.373,0.127-0.686,0.381-0.939s0.575-0.381,0.965-0.381
			c0.863,0,1.324-0.004,1.384-0.013c0.339-0.034,0.677-0.144,1.016-0.33s0.611-0.442,0.819-0.768
			c0.207-0.326,0.311-0.662,0.311-1.009c0-0.55-0.243-1.026-0.73-1.428c-0.486-0.402-1.216-0.603-2.189-0.603
			c-1.253,0-2.209,0.364-2.869,1.092c-0.194,0.211-0.352,0.347-0.47,0.406c-0.178,0.093-0.377,0.14-0.597,0.14
			c-0.355,0-0.66-0.127-0.914-0.381s-0.381-0.567-0.381-0.939c0-0.584,0.39-1.151,1.168-1.701c1.134-0.804,2.552-1.206,4.253-1.206
			c1.608,0,2.898,0.457,3.872,1.371s1.46,2.014,1.46,3.301c0,0.668-0.144,1.293-0.432,1.873S49.627,32.158,49.052,32.649z"/>
	</g>
</g>
</svg>
