<?xml version="1.0" encoding="utf-8"?>
<!-- Generator: Adobe Illustrator 15.0.0, SVG Export Plug-In . SVG Version: 6.00 Build 0)  -->
<!DOCTYPE svg PUBLIC "-//W3C//DTD SVG 1.1//EN" "http://www.w3.org/Graphics/SVG/1.1/DTD/svg11.dtd">
<svg version="1.1" id="Ebene_1" xmlns="http://www.w3.org/2000/svg" xmlns:xlink="http://www.w3.org/1999/xlink" x="0px"
     y="0px"
     width="64px" height="64px" viewBox="0 0 64 64" enable-background="new 0 0 64 64" xml:space="preserve">
<g>
	<rect fill="#7CBBCF" width="64" height="64"/>
    <g>
		<g>
			<path fill="#FFFFFF" d="M23.391,22.899l-1.522,1.523c-0.208,0.208-0.325,0.489-0.325,0.784c0,0.295,0.117,0.577,0.325,0.786
				l15.225,15.223c0.207,0.209,0.488,0.325,0.783,0.325c0.294,0,0.577-0.116,0.784-0.325l1.523-1.521
				c0.216-0.217,0.324-0.502,0.324-0.785c0-0.285-0.108-0.568-0.324-0.785L24.959,22.899C24.527,22.467,23.824,22.467,23.391,22.899
				z"/>
            <path fill="#FFFFFF" d="M31.024,19.881l-3.046-3.046c-2.517-2.518-6.615-2.518-9.132,0L15.8,19.881
				c-2.519,2.517-2.519,6.615,0,9.134l3.045,3.044c2.257,2.259,5.777,2.473,8.297,0.682l-3.2-3.198
				c-0.713,0.183-1.496,0.031-2.051-0.527l-3.046-3.045c-0.843-0.841-0.843-2.202,0-3.045l3.046-3.043
				c0.84-0.842,2.202-0.842,3.044,0l3.042,3.043c0.56,0.558,0.711,1.337,0.532,2.05l3.199,3.202
				C33.499,25.653,33.282,22.137,31.024,19.881z"/>
            <path fill="#FFFFFF" d="M46.248,44.238c2.518-2.519,2.518-6.617,0-9.135l-3.045-3.045c-2.258-2.257-5.773-2.475-8.294-0.687
				l3.202,3.203c0.711-0.18,1.49-0.029,2.048,0.528l3.044,3.043c0.842,0.842,0.842,2.205,0,3.046l-3.044,3.046
				c-0.843,0.842-2.204,0.838-3.046,0l-3.044-3.046c-0.559-0.557-0.709-1.341-0.528-2.052l-3.198-3.201
				c-1.793,2.519-1.576,6.041,0.682,8.299l3.044,3.044c2.519,2.519,6.617,2.519,9.135,0L46.248,44.238z"/>
		</g>
	</g>
</g>
</svg>
