<?xml version="1.0" encoding="utf-8"?>
<!-- Generator: Adobe Illustrator 15.0.0, SVG Export Plug-In . SVG Version: 6.00 Build 0)  -->
<!DOCTYPE svg PUBLIC "-//W3C//DTD SVG 1.1//EN" "http://www.w3.org/Graphics/SVG/1.1/DTD/svg11.dtd">
<svg version="1.1" id="Ebene_1" xmlns="http://www.w3.org/2000/svg" xmlns:xlink="http://www.w3.org/1999/xlink" x="0px" y="0px"
	  width="64px" height="64px" viewBox="0 0 64 64" enable-background="new 0 0 64 64" xml:space="preserve">
<g>
	<rect fill="#F9DA55" width="64" height="64"/>
	<g>
		<g>
			<g id="radio-button-on_1_">
				<path fill="#FFFFFF" d="M24.091,24.158c0.04-0.002,0.054-0.002,0.08-0.002c0.339-0.055,0.688-0.104,1.031-0.121
					c0.042-0.002,0.081,0.008,0.123,0.009c0.386-0.123,0.761-0.154,1.109-0.099c1.248-4.701,5.54-8.196,10.621-8.196
					c6.049,0,10.997,4.949,10.997,10.997c0,5.626-4.282,10.294-9.748,10.92c0.008,0.078,0.02,0.154,0.02,0.232
					c0,0.183-0.012,0.364-0.021,0.547c0.104,0.514,0.065,1.059-0.118,1.548c-0.009,0.151-0.022,0.301-0.057,0.444
					c7.062-0.553,12.673-6.493,12.673-13.691c0-7.562-6.186-13.747-13.746-13.747c-6.705,0-12.311,4.868-13.498,11.239
					C23.73,24.196,23.908,24.167,24.091,24.158z"/>
			</g>
		</g>
		<g>
			<g id="radio-button-on">
				<path fill="#FFFFFF" d="M25.079,44.459c3.849,0,6.873-3.024,6.873-6.873c0-3.85-3.024-6.874-6.873-6.874
					c-3.85,0-6.873,3.024-6.873,6.874C18.206,41.435,21.229,44.459,25.079,44.459z M25.079,51.332
					c7.561,0,13.747-6.186,13.747-13.746c0-7.562-6.187-13.747-13.747-13.747s-13.746,6.186-13.746,13.747
					C11.333,45.146,17.519,51.332,25.079,51.332z M25.079,26.588c6.049,0,10.997,4.949,10.997,10.998s-4.948,10.997-10.997,10.997
					s-10.998-4.948-10.998-10.997S19.03,26.588,25.079,26.588z"/>
			</g>
		</g>
	</g>
</g>
</svg>
