<?xml version="1.0" encoding="utf-8"?>
<!-- Generator: Adobe Illustrator 15.0.0, SVG Export Plug-In . SVG Version: 6.00 Build 0)  -->
<!DOCTYPE svg PUBLIC "-//W3C//DTD SVG 1.1//EN" "http://www.w3.org/Graphics/SVG/1.1/DTD/svg11.dtd">
<svg version="1.1" id="Ebene_1" xmlns="http://www.w3.org/2000/svg" xmlns:xlink="http://www.w3.org/1999/xlink" x="0px"
     y="0px"
     width="64px" height="64px" viewBox="0 0 64 64" enable-background="new 0 0 64 64" xml:space="preserve">
<g>
	<rect fill="#69B77B" width="64" height="64"/>
    <path fill="#FFFFFF" d="M25.5,33.614c0,1.042-0.85,1.886-1.897,1.886h-9.205c-1.048,0-1.897-0.844-1.897-1.886v-8.229
		c0-1.042,0.85-1.886,1.897-1.886h9.205c1.048,0,1.897,0.844,1.897,1.886V33.614z"/>
    <path fill="#FFFFFF" d="M51.5,16.636c0,1.029-0.835,1.864-1.865,1.864h-35.27c-1.03,0-1.865-0.835-1.865-1.864v-1.271
		c0-1.029,0.835-1.864,1.865-1.864h35.27c1.03,0,1.865,0.835,1.865,1.864V16.636z"/>
    <path fill="#FFFFFF" d="M48.5,25.811c0,0.934-0.757,1.689-1.689,1.689H30.189c-0.933,0-1.689-0.756-1.689-1.689v-0.621
		c0-0.934,0.756-1.689,1.689-1.689h16.621c0.933,0,1.689,0.756,1.689,1.689V25.811z"/>
    <path fill="#FFFFFF" d="M45.5,33.812c0,0.932-0.756,1.688-1.688,1.688H30.188c-0.933,0-1.688-0.756-1.688-1.688v-0.625
		c0-0.932,0.756-1.688,1.688-1.688h13.623c0.933,0,1.688,0.756,1.688,1.688V33.812z"/>
    <path fill="#FFFFFF" d="M50.5,41.636c0,1.029-0.835,1.864-1.864,1.864H14.364c-1.03,0-1.864-0.835-1.864-1.864v-0.271
		c0-1.029,0.834-1.864,1.864-1.864h34.271c1.029,0,1.864,0.835,1.864,1.864V41.636z"/>
    <path fill="#FFFFFF" d="M44.5,49.635c0,1.03-0.835,1.865-1.864,1.865H14.364c-1.03,0-1.864-0.835-1.864-1.865v-0.27
		c0-1.03,0.834-1.865,1.864-1.865h28.271c1.029,0,1.864,0.835,1.864,1.865V49.635z"/>
</g>
</svg>
