<?xml version="1.0" encoding="utf-8"?>
<!-- Generator: Adobe Illustrator 15.0.0, SVG Export Plug-In . SVG Version: 6.00 Build 0)  -->
<!DOCTYPE svg PUBLIC "-//W3C//DTD SVG 1.1//EN" "http://www.w3.org/Graphics/SVG/1.1/DTD/svg11.dtd">
<svg version="1.1" id="Ebene_1" xmlns="http://www.w3.org/2000/svg" xmlns:xlink="http://www.w3.org/1999/xlink" x="0px" y="0px"
	 width="64px" height="64px" viewBox="0 0 64 64" enable-background="new 0 0 64 64" xml:space="preserve">
<g>
	<rect fill="#69B77B" width="64" height="64"/>
	<g>
		<path fill="#FFFFFF" d="M44.225,39.056H17.792c-2.083,0-3.776,1.445-3.776,3.223c0,1.776,1.693,3.222,3.776,3.222h26.433
			c2.081,0,3.775-1.445,3.775-3.222C48,40.501,46.306,39.056,44.225,39.056z"/>
		<path fill="#FFFFFF" d="M44.225,27.778H17.792c-2.083,0-3.776,1.445-3.776,3.222s1.693,3.222,3.776,3.222h26.433
			C46.306,34.222,48,32.777,48,31S46.306,27.778,44.225,27.778z"/>
		<path fill="#FFFFFF" d="M44.225,16.5H17.792c-2.083,0-3.776,1.445-3.776,3.222c0,1.777,1.693,3.223,3.776,3.223h26.433
			c2.081,0,3.775-1.445,3.775-3.223C48,17.945,46.306,16.5,44.225,16.5z"/>
	</g>
</g>
</svg>
