<?xml version="1.0" encoding="utf-8"?>
<!-- Generator: Adobe Illustrator 15.0.0, SVG Export Plug-In . SVG Version: 6.00 Build 0)  -->
<!DOCTYPE svg PUBLIC "-//W3C//DTD SVG 1.1//EN" "http://www.w3.org/Graphics/SVG/1.1/DTD/svg11.dtd">
<svg version="1.1" id="Ebene_1" xmlns="http://www.w3.org/2000/svg" xmlns:xlink="http://www.w3.org/1999/xlink" x="0px" y="0px"
	 width="64px" height="64px" viewBox="0 0 64 64" enable-background="new 0 0 64 64" xml:space="preserve">
<g>
	<rect fill="#47B5AF" width="64" height="64"/>
	<g>
		<g>
			<path fill="#FFFFFF" d="M44.062,16.694c-0.004-0.414-0.342-0.747-0.754-0.747H20.793c-0.417,0-0.755,0.338-0.755,0.756v4.156
				c0,0.417,0.337,0.755,0.755,0.755h1.708c0.229,0,0.447-0.104,0.59-0.283l1.285-1.606h5.41v19.619
				c0,0.418,0.339,0.756,0.757,0.756h3.02c0.418,0,0.756-0.338,0.756-0.756V19.725h5.404l1.291,1.607
				c0.145,0.178,0.361,0.282,0.59,0.282h1.707c0.201,0,0.393-0.08,0.535-0.223c0.143-0.141,0.221-0.335,0.221-0.536L44.062,16.694z"
				/>
		</g>
	</g>
	<path fill="#FFFFFF" d="M44.014,46.577c0,0.515-0.418,0.931-0.932,0.931H20.93c-0.514,0-0.931-0.416-0.931-0.931V44.52
		c0-0.515,0.417-0.932,0.931-0.932h22.152c0.514,0,0.932,0.417,0.932,0.932V46.577z"/>
</g>
</svg>
