<?xml version="1.0" encoding="utf-8"?>
<!-- Generator: Adobe Illustrator 15.0.0, SVG Export Plug-In . SVG Version: 6.00 Build 0)  -->
<!DOCTYPE svg PUBLIC "-//W3C//DTD SVG 1.1//EN" "http://www.w3.org/Graphics/SVG/1.1/DTD/svg11.dtd">
<svg version="1.1" id="Ebene_1" xmlns="http://www.w3.org/2000/svg" xmlns:xlink="http://www.w3.org/1999/xlink" x="0px"
     y="0px"
     width="64px" height="64px" viewBox="0 0 64 64" enable-background="new 0 0 64 64" xml:space="preserve">
<g>
	<rect fill="#47B5AF" width="64" height="64"/>
</g>
    <g>
	<path fill="#FFFFFF" d="M21.57,19.085l4.545,14.464h-3.113l-1.017-3.424h-4.233l-1.017,3.424h-3.03l4.731-14.464H21.57z
		 M21.28,27.718c0,0-0.478-1.515-0.789-2.905c-0.145-0.664-0.581-2.553-0.581-2.553s-0.415,1.701-0.685,2.781
		c-0.27,1.037-0.457,1.722-0.768,2.677H21.28z"/>
        <path fill="#FFFFFF" d="M32.57,19.126c1.764,0,2.678,0.271,3.549,1.038c0.81,0.705,1.183,1.535,1.183,2.573
		c0,0.976-0.332,1.806-0.976,2.407c-0.414,0.395-0.664,0.539-1.328,0.747c1.785,0.519,2.864,1.743,2.864,3.632
		c0,1.992-1.245,3.859-3.776,3.984c-0.457,0.021-1.059,0.041-1.848,0.041h-4.544V19.126H32.57z M30.558,24.896h1.723
		c0.685,0,0.996-0.062,1.245-0.187c0.395-0.208,0.747-0.893,0.747-1.474c0-0.603-0.312-1.245-0.83-1.453
		c-0.249-0.104-0.561-0.187-1.204-0.187h-1.681V24.896z M30.599,31.184h1.888c0.603,0,1.038-0.084,1.349-0.332
		c0.437-0.332,0.748-0.996,0.748-1.682c0-0.83-0.416-1.577-1.059-1.764c-0.354-0.104-0.581-0.125-1.121-0.125h-1.805V31.184z"/>
        <path fill="#FFFFFF" d="M48.261,21.928c-0.727-0.539-1.494-0.81-2.304-0.81c-0.976,0-1.93,0.478-2.449,1.245
		c-0.56,0.83-0.809,2.034-0.809,3.715c0,1.972,0.166,3.071,0.602,3.859c0.581,1.059,1.535,1.619,2.781,1.619
		c0.851,0,1.618-0.249,2.469-0.934l1.328,1.826c-1.141,0.934-2.365,1.349-4.005,1.349c-1.992,0-3.528-0.644-4.711-1.992
		c-1.162-1.308-1.743-3.051-1.743-5.167c0-1.806,0.312-3.237,0.976-4.482c1.12-2.096,3.196-3.342,5.521-3.342
		c1.432,0,2.863,0.457,3.652,1.142L48.261,21.928z"/>
</g>
    <path fill="#FFFFFF" d="M51.502,42.528c0,1.104-0.896,2-2,2H14.506c-1.104,0-2-0.896-2-2v-2.013c0-1.104,0.896-2,2-2h34.996
	c1.104,0,2,0.896,2,2V42.528z"/>
</svg>
