<?xml version="1.0" encoding="utf-8"?>
<!-- Generator: Adobe Illustrator 15.0.0, SVG Export Plug-In . SVG Version: 6.00 Build 0)  -->
<!DOCTYPE svg PUBLIC "-//W3C//DTD SVG 1.1//EN" "http://www.w3.org/Graphics/SVG/1.1/DTD/svg11.dtd">
<svg version="1.1" id="Ebene_1" xmlns="http://www.w3.org/2000/svg" xmlns:xlink="http://www.w3.org/1999/xlink" x="0px" y="0px"
	 width="64px" height="64px" viewBox="0 0 64 64" enable-background="new 0 0 64 64" xml:space="preserve">
<g>
	<rect fill="#629ABF" width="64" height="64"/>
	<g>
		<g>
			<path fill="#FFFFFF" d="M48.521,18.321c-0.007-0.565-0.466-1.02-1.03-1.02H16.768c-0.57,0-1.031,0.461-1.031,1.031v5.671
				c0,0.57,0.461,1.032,1.031,1.032h2.33c0.313,0,0.61-0.143,0.805-0.387l1.752-2.191h7.382V49.23c0,0.568,0.462,1.031,1.033,1.031
				h4.124c0.569,0,1.031-0.463,1.031-1.031V22.457H42.6l1.761,2.193c0.195,0.243,0.492,0.385,0.805,0.385h2.329
				c0.274,0,0.537-0.11,0.73-0.304c0.193-0.194,0.302-0.458,0.301-0.732L48.521,18.321z"/>
		</g>
	</g>
</g>
</svg>
