<?xml version="1.0" encoding="utf-8"?>
<!-- Generator: Adobe Illustrator 15.0.0, SVG Export Plug-In . SVG Version: 6.00 Build 0)  -->
<!DOCTYPE svg PUBLIC "-//W3C//DTD SVG 1.1//EN" "http://www.w3.org/Graphics/SVG/1.1/DTD/svg11.dtd">
<svg version="1.1" id="Ebene_1" xmlns="http://www.w3.org/2000/svg" xmlns:xlink="http://www.w3.org/1999/xlink" x="0px"
     y="0px"
     width="64px" height="64px" viewBox="0 0 64 64" enable-background="new 0 0 64 64" xml:space="preserve">
<g>
	<rect fill="#629ABF" width="64" height="64"/>
    <g>
		<path fill="#FFFFFF" d="M50.51,22.564c0,1.104-0.896,2-2,2H15.44c-1.104,0-2-0.896-2-2v-2.129c0-1.104,0.896-2,2-2H48.51
			c1.104,0,2,0.896,2,2V22.564z"/>
        <path fill="#FFFFFF" d="M40.702,33.539c0,1.104-0.896,2-2,2H15.499c-1.104,0-2-0.896-2-2v-2.013c0-1.104,0.896-2,2-2h23.203
			c1.104,0,2,0.896,2,2V33.539z"/>
        <path fill="#FFFFFF" d="M45.548,44.397c0,1.104-0.896,2-2,2H15.324c-1.104,0-2-0.896-2-2v-2.013c0-1.104,0.896-2,2-2h28.224
			c1.104,0,2,0.896,2,2V44.397z"/>
	</g>
</g>
</svg>
