<svg xmlns="http://www.w3.org/2000/svg" width="64" height="64" viewBox="0 0 64 64">
  <g id="Gruppe_7" data-name="Gruppe 7" transform="translate(-808 -456)">
    <g id="Gruppe_6" data-name="Gruppe 6">
      <g id="Integer" transform="translate(808 456.5)">
        <rect id="Rechteck_8" data-name="Rechteck 8" width="64" height="64" transform="translate(0 -0.5)" fill="#c48649"/>
        <path id="Pfad_5" data-name="Pfad 5" d="M9.344-16.464V0H5.806V-12.466a4.236,4.236,0,0,1-.691.489,7.13,7.13,0,0,1-.848.416,7.571,7.571,0,0,1-.932.314,6.808,6.808,0,0,1-.955.185v-2.987a14.757,14.757,0,0,0,2.605-1.033A14.828,14.828,0,0,0,7.2-16.464ZM25.437-8.827a14.285,14.285,0,0,1-.472,3.835A8.227,8.227,0,0,1,23.59-2.134,6.076,6.076,0,0,1,21.383-.343a6.76,6.76,0,0,1-2.954.623,8.393,8.393,0,0,1-3.4-.629v-2.92a5.452,5.452,0,0,0,3.055.831,3.516,3.516,0,0,0,2.864-1.247,5.561,5.561,0,0,0,1.044-3.6l-.067-.022a3.646,3.646,0,0,1-3.246,1.583A4.455,4.455,0,0,1,16.851-6.1,4.384,4.384,0,0,1,15.4-7.126a4.7,4.7,0,0,1-.955-1.567,5.631,5.631,0,0,1-.343-2A6.207,6.207,0,0,1,14.521-13a5.3,5.3,0,0,1,1.162-1.8,5.129,5.129,0,0,1,1.791-1.162,6.282,6.282,0,0,1,2.313-.41,5.3,5.3,0,0,1,2.358.511,4.955,4.955,0,0,1,1.78,1.477,6.894,6.894,0,0,1,1.123,2.37A12.007,12.007,0,0,1,25.437-8.827Zm-3.583-1.887a4.173,4.173,0,0,0-.157-1.162,3.059,3.059,0,0,0-.438-.938,2.132,2.132,0,0,0-.685-.623,1.762,1.762,0,0,0-.887-.23,1.805,1.805,0,0,0-.848.2,2.067,2.067,0,0,0-.668.556,2.633,2.633,0,0,0-.438.848,3.5,3.5,0,0,0-.157,1.067,3.645,3.645,0,0,0,.157,1.117,2.386,2.386,0,0,0,.444.825,1.861,1.861,0,0,0,.691.511,2.249,2.249,0,0,0,.9.174,1.929,1.929,0,0,0,.854-.185,2.056,2.056,0,0,0,.657-.5,2.262,2.262,0,0,0,.427-.741A2.732,2.732,0,0,0,21.854-10.714Zm16.891-3.347q-1.078,1.943-1.932,3.644t-1.5,3.358A31.667,31.667,0,0,0,34.2-3.689,32.543,32.543,0,0,0,33.444,0H29.738a30.323,30.323,0,0,1,.831-3.616,33.913,33.913,0,0,1,1.2-3.375q.679-1.634,1.5-3.184t1.746-3.032H27.537v-2.9H38.745ZM46.213.281q-5.75,0-5.75-8.075a10.987,10.987,0,0,1,1.555-6.385,5.182,5.182,0,0,1,4.509-2.2q5.615,0,5.615,8.209A10.818,10.818,0,0,1,50.61-1.9,5.05,5.05,0,0,1,46.213.281Zm.157-13.948q-2.3,0-2.3,5.784,0,5.447,2.257,5.447,2.2,0,2.2-5.615T46.371-13.667Z" transform="translate(5 33.5)" fill="#fff"/>
      </g>
    </g>
    <line id="Linie_4" data-name="Linie 4" x2="46" transform="translate(817.5 501.5)" fill="none" stroke="#fff" stroke-linecap="round" stroke-width="5"/>
  </g>
</svg>
