<svg id="Gruppe_5" data-name="Gruppe 5" xmlns="http://www.w3.org/2000/svg" width="64" height="64" viewBox="0 0 64 64">
    <rect id="Rechteck_4" data-name="Rechteck 4" width="64" height="64" fill="#e57d17"/>
    <path id="Pfad_4" data-name="Pfad 4" d="M38.955,43.237a11.215,11.215,0,0,1,0,15.753l-9.228,9.335a1.978,1.978,0,1,1-2.81-2.785l9.22-9.327a7.256,7.256,0,0,0,0-10.2L25.616,35.366a1.966,1.966,0,0,1,.016-2.8,1.884,1.884,0,0,1,2.719.016ZM0,48.271V35.953A3.955,3.955,0,0,1,3.955,32H16.272A5.256,5.256,0,0,1,20,33.543L33.838,47.381a5.281,5.281,0,0,1,0,7.465L22.847,65.837a5.281,5.281,0,0,1-7.465,0L1.545,52A5.257,5.257,0,0,1,0,48.271ZM9.228,38.59a2.637,2.637,0,1,0,2.637,2.637A2.635,2.635,0,0,0,9.228,38.59Z" transform="translate(10.907 -18.455)" fill="#fff"/>
</svg>
