<svg width="64" height="64" xmlns="http://www.w3.org/2000/svg">

    <g>
        <title>background</title>
        <rect fill="none" id="canvas_background" height="402" width="582" y="-1" x="-1"/>
    </g>
    <g>
        <title>Layer 1</title>
        <rect id="svg_1" height="64" width="64" fill="#A3D18B"/>
        <line id="svg_2" y2="37.167" x2="37.001" y1="34.167" x1="37.001" fill="#FFFFFF"/>
        <g stroke="null" id="svg_3">
            <path stroke="null" id="svg_6"
                  d="m40.50154,15.53955l4.87391,0c2.31075,0 4.18362,1.87287 4.18362,4.18362l0,5.57816l0,4.18362l0,15.57143c0,2.31075 -1.87287,4.18362 -4.18362,4.18362l-25.33459,0c-2.31075,0 -4.18362,-1.87287 -4.18362,-4.18362l0,-25.3332c0,-2.31075 1.87287,-4.18362 4.18362,-4.18362l16.15434,0l4.30634,0z"
                  fill="#FFFFFF"/>
        </g>
        <line id="svg_7" y2="27.167" x2="30.506" y1="27.167" x1="27.418" fill="#FFFFFF"/>
        <g stroke="null" id="svg_8">
            <path stroke="null" id="svg_9"
                  d="m45.44648,27.81116l-2.78767,-2.78088c-0.32969,-0.32889 -0.86703,-0.32889 -1.19672,0l-11.61506,11.58676l-4.94121,-4.92777c-0.32969,-0.32749 -0.86562,-0.32749 -1.19532,0l-2.78767,2.78228c-0.32969,0.32889 -0.32969,0.86211 0,1.1924l8.32654,8.30764c0.16555,0.16375 0.3802,0.24772 0.59766,0.24772c0.21606,0 0.43211,-0.08397 0.59766,-0.24772l15.00179,-14.96524c0.15713,-0.15815 0.24692,-0.37368 0.24692,-0.5962c0,-0.22533 -0.08839,-0.44085 -0.24692,-0.599z"
                  fill="#A3D18B"/>
        </g>
    </g>
</svg>
