<svg width="64" height="64" xmlns="http://www.w3.org/2000/svg">

    <g>
        <title>background</title>
        <rect fill="none" id="canvas_background" height="402" width="582" y="-1" x="-1"/>
    </g>
    <g>
        <title>Layer 1</title>
        <rect id="svg_1" height="64" width="64" fill="#E286B7"/>
        <g stroke="null" id="svg_16">
            <g stroke="null" id="svg_17">
                <path stroke="null" id="svg_18"
                      d="m47.50768,23.79673c-1.5355,-2.635 -3.62143,-4.72366 -6.25915,-6.26052c-2.635,-1.53822 -5.51389,-2.30665 -8.63256,-2.30665c-3.1214,0 -6.00028,0.76843 -8.63529,2.30665c-2.63636,1.53686 -4.7223,3.62415 -6.26052,6.26052c-1.53822,2.635 -2.30665,5.51389 -2.30665,8.63529s0.76843,5.99756 2.30665,8.63529c1.53822,2.635 3.62415,4.72093 6.26052,6.25915c2.635,1.53822 5.51389,2.30665 8.63256,2.30665c3.1214,0 6.00028,-0.76843 8.63529,-2.30665c2.63773,-1.53822 4.72366,-3.62415 6.25915,-6.25915c1.53822,-2.63773 2.30665,-5.51661 2.30665,-8.63529c0.00272,-3.1214 -0.76843,-6.00028 -2.30665,-8.63529zm-4.34353,14.74729c-1.09133,1.86794 -2.56824,3.34485 -4.43618,4.43618c-1.86521,1.09133 -3.90346,1.63359 -6.11473,1.63359c-2.20855,0 -4.2468,-0.54226 -6.11201,-1.63359c-1.86794,-1.09133 -3.34621,-2.56824 -4.43482,-4.43618c-1.08997,-1.86521 -1.63496,-3.90346 -1.63496,-6.11201c0,-2.21128 0.54499,-4.24952 1.63496,-6.11473s2.56688,-3.34621 4.43482,-4.43482c1.86521,-1.09133 3.90346,-1.63496 6.11201,-1.63496c2.21128,0 4.24952,0.54362 6.11473,1.63496c1.86794,1.08861 3.34485,2.5696 4.43618,4.43482c1.08861,1.86521 1.63359,3.90346 1.63359,6.11473c0,2.20855 -0.54499,4.2468 -1.63359,6.11201z"
                      fill="#FFFFFF"/>
                <path stroke="null" id="svg_19"
                      d="m34.76593,23.83079l-1.43467,0c-0.20982,0 -0.38013,0.06676 -0.51637,0.19892c-0.13352,0.13625 -0.20164,0.30655 -0.20164,0.51637l0,7.88457l-5.01659,0c-0.20709,0 -0.38013,0.06676 -0.51365,0.19892c-0.13625,0.13625 -0.20164,0.30655 -0.20164,0.51637l0,1.43467c0,0.20709 0.06676,0.38013 0.20164,0.51365c0.13352,0.13625 0.30655,0.20164 0.51365,0.20164l7.16928,0c0.20709,0 0.38013,-0.06676 0.51365,-0.20164c0.13625,-0.13352 0.20164,-0.30655 0.20164,-0.51365l0,-10.03454c0,-0.20982 -0.06676,-0.38013 -0.20164,-0.51637c-0.13352,-0.13216 -0.30655,-0.19892 -0.51365,-0.19892z"
                      fill="#FFFFFF"/>
            </g>
        </g>
    </g>
</svg>
