<?xml version="1.0" encoding="utf-8"?>
<!-- Generator: Adobe Illustrator 15.0.0, SVG Export Plug-In . SVG Version: 6.00 Build 0)  -->
<!DOCTYPE svg PUBLIC "-//W3C//DTD SVG 1.1//EN" "http://www.w3.org/Graphics/SVG/1.1/DTD/svg11.dtd">
<svg version="1.1" id="Ebene_1" xmlns="http://www.w3.org/2000/svg" xmlns:xlink="http://www.w3.org/1999/xlink" x="0px"
     y="0px"
     width="64px" height="64px" viewBox="0 0 64 64" enable-background="new 0 0 64 64" xml:space="preserve">
<rect fill="#E57761" width="64" height="64"/>
    <g>
	<g id="_x31_5_38_">
		<g>
			<path fill="#FFFFFF" d="M23.59,23.334h0.45c0.683,0,1.237-0.554,1.237-1.237v-3.416v-1.277c0-0.684-0.554-1.238-1.237-1.238
				h-0.45c-0.684,0-1.238,0.554-1.238,1.238v1.277v3.416C22.353,22.78,22.906,23.334,23.59,23.334z"/>
            <path fill="#FFFFFF" d="M39.464,23.303h0.45c0.684,0,1.236-0.554,1.236-1.237v-3.708v-0.984c0-0.684-0.555-1.238-1.236-1.238
				h-0.45c-0.685,0-1.237,0.554-1.237,1.238v0.984v3.708C38.227,22.749,38.779,23.303,39.464,23.303z"/>
            <path fill="#FFFFFF" d="M45.333,18.681h-3.176v3.708c0,1.238-1.007,1.92-2.243,1.92h-0.45c-1.237,0-2.243-1.007-2.243-2.244
				V18.68H26.283v3.416c0,1.237-1.006,2.243-2.243,2.243h-0.45c-1.237,0-2.244-1.006-2.244-2.243V18.68h-3.427
				c-1.109,0-2.012,0.903-2.012,2.013v24.311c0,1.109,0.902,2.014,2.012,2.014h27.414c1.108,0,2.013-0.903,2.013-2.014v-24.31
				C47.346,19.584,46.441,18.681,45.333,18.681z M45.333,45.005H17.919V26.646h27.415L45.333,45.005
				C45.334,45.005,45.334,45.005,45.333,45.005z"/>
            <path fill="#FFFFFF" d="M32.665,32.805h3.612c0.143,0,0.26-0.117,0.26-0.26v-3.129c0-0.143-0.117-0.259-0.26-0.259h-3.612
				c-0.144,0-0.259,0.116-0.259,0.259v3.129C32.406,32.688,32.521,32.805,32.665,32.805z"/>
            <path fill="#FFFFFF" d="M38.561,32.805h3.613c0.143,0,0.258-0.117,0.258-0.26v-3.129c0-0.143-0.115-0.259-0.258-0.259h-3.613
				c-0.143,0-0.259,0.116-0.259,0.259v3.129C38.302,32.688,38.418,32.805,38.561,32.805z"/>
            <path fill="#FFFFFF" d="M20.874,37.925h3.612c0.144,0,0.26-0.114,0.26-0.259v-3.128c0-0.144-0.116-0.261-0.26-0.261h-3.612
				c-0.143,0-0.259,0.117-0.259,0.261v3.128C20.615,37.811,20.731,37.925,20.874,37.925z"/>
            <path fill="#FFFFFF" d="M26.77,37.925h3.612c0.143,0,0.259-0.114,0.259-0.259v-3.128c0-0.144-0.116-0.261-0.259-0.261H26.77
				c-0.144,0-0.26,0.117-0.26,0.261v3.128C26.51,37.811,26.626,37.925,26.77,37.925z"/>
            <path fill="#FFFFFF" d="M32.665,37.925h3.612c0.143,0,0.26-0.114,0.26-0.259v-3.128c0-0.144-0.117-0.261-0.26-0.261h-3.612
				c-0.144,0-0.259,0.117-0.259,0.261v3.128C32.406,37.811,32.521,37.925,32.665,37.925z"/>
            <path fill="#FFFFFF" d="M38.561,37.925h3.613c0.143,0,0.258-0.114,0.258-0.259v-3.128c0-0.144-0.115-0.261-0.258-0.261h-3.613
				c-0.143,0-0.259,0.117-0.259,0.261v3.128C38.302,37.811,38.418,37.925,38.561,37.925z"/>
            <path fill="#FFFFFF" d="M24.486,39.398h-3.612c-0.143,0-0.259,0.117-0.259,0.261v3.128c0,0.143,0.116,0.26,0.259,0.26h3.612
				c0.144,0,0.26-0.117,0.26-0.26v-3.128C24.746,39.516,24.63,39.398,24.486,39.398z"/>
            <path fill="#FFFFFF" d="M30.382,39.398H26.77c-0.144,0-0.26,0.117-0.26,0.261v3.128c0,0.143,0.116,0.26,0.26,0.26h3.612
				c0.143,0,0.259-0.117,0.259-0.26v-3.128C30.641,39.516,30.525,39.398,30.382,39.398z"/>
            <path fill="#FFFFFF" d="M36.277,39.398h-3.612c-0.144,0-0.259,0.117-0.259,0.261v3.128c0,0.143,0.115,0.26,0.259,0.26h3.612
				c0.144,0,0.26-0.117,0.26-0.26v-3.128C36.537,39.516,36.421,39.398,36.277,39.398z"/>
            <path fill="#FFFFFF" d="M42.174,39.398h-3.613c-0.143,0-0.259,0.117-0.259,0.261v3.128c0,0.143,0.116,0.26,0.259,0.26h3.613
				c0.143,0,0.258-0.117,0.258-0.26v-3.128C42.432,39.516,42.316,39.398,42.174,39.398z"/>
		</g>
	</g>
</g>
</svg>
