<?xml version="1.0" encoding="utf-8"?>
<!-- Generator: Adobe Illustrator 15.0.0, SVG Export Plug-In . SVG Version: 6.00 Build 0)  -->
<!DOCTYPE svg PUBLIC "-//W3C//DTD SVG 1.1//EN" "http://www.w3.org/Graphics/SVG/1.1/DTD/svg11.dtd">
<svg version="1.1" id="Ebene_1" xmlns="http://www.w3.org/2000/svg" xmlns:xlink="http://www.w3.org/1999/xlink" x="0px"
     y="0px"
     width="64px" height="64px" viewBox="0 0 64 64" enable-background="new 0 0 64 64" xml:space="preserve">
<g>
	<rect fill="#F9DA55" width="64" height="64"/>
    <path fill="#FFFFFF"
          d="M32.09637962087206,40.86259053159565 C37.17344254963335,40.86259053159565 41.16228076646217,36.873752314766826 41.16228076646217,31.796689386005525 C41.16228076646217,26.718307396987356 37.17344254963335,22.72946918015854 32.09637962087206,22.72946918015854 C27.01799763185388,22.72946918015854 23.030478475281953,26.718307396987356 23.030478475281953,31.796689386005525 C23.030478475281953,36.873752314766826 27.01799763185388,40.86259053159565 32.09637962087206,40.86259053159565 zM32.09637962087206,49.92849167718575 C42.069794223200994,49.92849167718575 50.22950097230916,41.768784928077594 50.22950097230916,31.796689386005525 C50.22950097230916,21.821955723419705 42.06847516294411,13.663568034568428 32.09637962087206,13.663568034568428 S13.964577329691842,21.823274783676588 13.964577329691842,31.796689386005525 C13.964577329691842,41.768784928077594 22.124284078800006,49.92849167718575 32.09637962087206,49.92849167718575 zM32.09637962087206,17.28966468075309 C40.07537511478659,17.28966468075309 46.60208526586761,23.817693892091 46.60208526586761,31.796689386005525 S40.07537511478659,46.30239503100108 32.09637962087206,46.30239503100108 S17.58935491561962,39.77568487992006 17.58935491561962,31.796689386005525 S24.11738412695753,17.28966468075309 32.09637962087206,17.28966468075309 z"
          id="svg_6" stroke="null"></path></g>
</svg>
