<?xml version="1.0" encoding="utf-8"?>
<!-- Generator: Adobe Illustrator 19.2.1, SVG Export Plug-In . SVG Version: 6.00 Build 0)  -->
<svg version="1.1" id="Ebene_1" xmlns="http://www.w3.org/2000/svg" xmlns:xlink="http://www.w3.org/1999/xlink" x="0px"
     y="0px"
     viewBox="0 0 48 48" style="enable-background:new 0 0 48 48;" xml:space="preserve">
<style type="text/css">
	.st0{fill:#847F76;}
	.st1{fill:#FFFFFF;}
</style>
    <rect x="0" class="st0" width="48" height="48"/>
    <g>
	<path class="st1" d="M41.1,15.9c0-1.2-0.8-2.1-1.8-2.1h-4.8c-1,0-1.8,1-1.8,2.1v2.4l8.4,0V15.9z"/>
        <path class="st1" d="M30.1,18.3v-2.4c0-1.2-0.8-2.1-1.8-2.1h-4.8c-1,0-1.8,1-1.8,2.1v2.4L30.1,18.3L30.1,18.3z"/>
        <path class="st1" d="M41.3,20.3l-21.8,0l-0.1-3.9c0-1.6-1.2-2.9-2.7-2.9H9.9c-1.5,0-2.7,1.3-2.7,2.9v14.7l2.9,0v-7.5h28.4v7.5
		l2.8,0L41.3,20.3z"/>
</g>
    <rect x="7.2" y="31.1" class="st1" width="34" height="2.2"/>
</svg>
