<?xml version="1.0" encoding="UTF-8"?>
<svg width="197px" height="27px" viewBox="0 0 197 27" version="1.1" xmlns="http://www.w3.org/2000/svg" xmlns:xlink="http://www.w3.org/1999/xlink">
    <!-- Generator: Sketch 52.4 (67378) - http://www.bohemiancoding.com/sketch -->
    <title>Logo</title>
    <desc>Created with Sketch.</desc>
    <g id="Page-1" stroke="none" stroke-width="1" fill="none" fill-rule="evenodd">
        <g id="Logo">
            <path d="M49.3113784,5.75394272 L42.7249218,5.75394272 L42.7249218,23.9174748 L39.0835108,23.9174748 L39.0835108,5.75394272 L32.5550847,5.75394272 L32.5550847,2.79438956 L49.3113784,2.79438956 L49.3113784,5.75394272 Z M54.5320467,11.7455871 L56.6791735,11.7455871 C57.7624141,11.7359153 58.6207726,11.4554376 59.2542749,10.9041455 C59.8877772,10.3528534 60.2045236,9.55494268 60.2045236,8.51038929 C60.2045236,7.50452305 59.9409713,6.72353767 59.4138587,6.1674097 C58.8867461,5.61128174 58.0815816,5.33322193 56.998341,5.33322193 C56.0505055,5.33322193 55.2719381,5.60644591 54.6626152,6.15290209 C54.0532924,6.69935826 53.7486356,7.41264213 53.7486356,8.29277508 L50.2232855,8.29277508 C50.2232855,7.20953452 50.511017,6.22302667 51.0864885,5.33322193 C51.6619601,4.44341718 52.4647066,3.74947661 53.4947524,3.25137938 C54.5247981,2.75328216 55.6781418,2.50423729 56.9548182,2.50423729 C59.0632685,2.50423729 60.7195379,3.03375989 61.9236758,4.09282097 C63.1278138,5.15188205 63.7298737,6.6243901 63.7298737,8.51038929 C63.7298737,9.45822478 63.4276348,10.3504341 62.8231478,11.187044 C62.2186609,12.0236539 61.4376755,12.6547288 60.4801683,13.0802875 C61.6407831,13.476831 62.5233208,14.1006521 63.1278077,14.9517697 C63.7322946,15.8028873 64.0345336,16.8184101 64.0345336,17.9983685 C64.0345336,19.8940395 63.3841154,21.4028162 62.0832596,22.5247439 C60.7824037,23.6466717 59.0729403,24.2076271 56.9548182,24.2076271 C54.9237421,24.2076271 53.2602191,23.666015 51.9641991,22.5827744 C50.6681792,21.4995338 50.0201789,20.0584586 50.0201789,18.2595056 L53.545529,18.2595056 C53.545529,19.1879975 53.8574396,19.9423858 54.4812701,20.5226933 C55.1051006,21.1030007 55.9441158,21.3931501 56.998341,21.3931501 C58.0912534,21.3931501 58.9520298,21.1030007 59.5806962,20.5226933 C60.2093626,19.9423858 60.5236911,19.1009527 60.5236911,17.9983685 C60.5236911,16.8861126 60.1948552,16.030172 59.5371734,15.4305209 C58.8794916,14.8308699 57.9026554,14.5310489 56.6066355,14.5310489 L54.5320467,14.5310489 L54.5320467,11.7455871 Z M76.8551189,16.0688559 L76.8551189,23.9174748 L73.1846927,23.9174748 L73.1846927,2.79438956 L81.2654334,2.79438956 C83.6253503,2.79438956 85.4992317,3.40853906 86.8871336,4.63685648 C88.2750356,5.8651739 88.9689762,7.49001036 88.9689762,9.51141462 C88.9689762,11.5811778 88.2895431,13.1915068 86.9306565,14.3424499 C85.5717699,15.493393 83.6688736,16.0688559 81.2219106,16.0688559 L76.8551189,16.0688559 Z M76.8551189,13.1238104 L81.2654334,13.1238104 C82.5711252,13.1238104 83.5673047,12.8167356 84.2540018,12.2025769 C84.9406989,11.5884182 85.2840424,10.7010447 85.2840424,9.54042985 C85.2840424,8.39915854 84.9358631,7.48760594 84.2394942,6.8057447 C83.5431252,6.12388345 82.5856323,5.7732863 81.3669867,5.75394272 L76.8551189,5.75394272 L76.8551189,13.1238104 Z M98.8756037,15.7787037 L94.7844567,15.7787037 L94.7844567,23.9174748 L91.1140305,23.9174748 L91.1140305,2.79438956 L98.5419286,2.79438956 C100.97922,2.79438956 102.860355,3.34083754 104.18539,4.43374989 C105.510426,5.52666224 106.172933,7.1079763 106.172933,9.17773951 C106.172933,10.589821 105.832008,11.7721796 105.150147,12.724851 C104.468285,13.6775224 103.518046,14.4101496 102.2994,14.9227545 L107.04339,23.7288759 L107.04339,23.9174748 L103.111827,23.9174748 L98.8756037,15.7787037 Z M94.7844567,12.8336581 L98.5564362,12.8336581 C99.7944254,12.8336581 100.76159,12.5217475 101.457959,11.897917 C102.154328,11.2740865 102.502507,10.4205638 102.502507,9.33732326 C102.502507,8.20572374 102.180925,7.33043982 101.537751,6.71144521 C100.894577,6.0924506 99.9346659,5.7732863 98.6579895,5.75394272 L94.7844567,5.75394272 L94.7844567,12.8336581 Z M120.939611,14.4875261 L112.264058,14.4875261 L112.264058,20.9869369 L122.40488,20.9869369 L122.40488,23.9174748 L108.593632,23.9174748 L108.593632,2.79438956 L122.303327,2.79438956 L122.303327,5.75394272 L112.264058,5.75394272 L112.264058,11.5860034 L120.939611,11.5860034 L120.939611,14.4875261 Z M129.090818,2.79438956 L135.184015,18.9848863 L141.262705,2.79438956 L146.006695,2.79438956 L146.006695,23.9174748 L142.350776,23.9174748 L142.350776,16.9538204 L142.713467,7.63993248 L136.475193,23.9174748 L133.849315,23.9174748 L127.625549,7.65444009 L127.988239,16.9538204 L127.988239,23.9174748 L124.33232,23.9174748 L124.33232,2.79438956 L129.090818,2.79438956 Z M153.156876,23.9174748 L149.500957,23.9174748 L149.500957,2.79438956 L153.156876,2.79438956 L153.156876,23.9174748 Z M172.058224,2.79438956 L172.058224,16.9102975 C172.058224,19.154153 171.340104,20.9313178 169.903843,22.2418455 C168.467582,23.5523731 166.555014,24.2076271 164.166082,24.2076271 C161.748134,24.2076271 159.828313,23.5620448 158.40656,22.2708607 C156.984806,20.9796767 156.27394,19.1880043 156.27394,16.8957899 L156.27394,2.79438956 L159.929859,2.79438956 L159.929859,16.9248051 C159.929859,18.3368866 160.28771,19.4152751 161.003422,20.1600029 C161.719135,20.9047308 162.773344,21.2770892 164.166082,21.2770892 C166.990245,21.2770892 168.402305,19.7876558 168.402305,16.8087442 L168.402305,2.79438956 L172.058224,2.79438956 Z M179.672648,2.79438956 L185.765846,18.9848863 L191.844536,2.79438956 L196.588526,2.79438956 L196.588526,23.9174748 L192.932607,23.9174748 L192.932607,16.9538204 L193.295298,7.63993248 L187.057024,23.9174748 L184.431146,23.9174748 L178.207379,7.65444009 L178.57007,16.9538204 L178.57007,23.9174748 L174.914151,23.9174748 L174.914151,2.79438956 L179.672648,2.79438956 Z" id="T3-PREMIUM-Copy" fill="#303030"/>
            <path d="M8.43128591,23.3428164 C7.45576523,19.5800937 21.1827348,19.1620134 19.0923334,10.2429672 C17.6290524,3.62336254 4.66856327,0.905840635 15.6083309,1.25424088 C18.8832932,1.39360098 21.3220949,2.57816181 22.9944161,4.18080293 C20.5556144,1.60264112 17.141292,0 13.3088893,0 C5.9924842,0.0696800488 0,6.06216425 0,13.4482494 C0,20.8343346 5.9924842,26.8268188 13.3785694,26.8268188 C14.0056898,26.8268188 14.5631302,26.7571388 15.1205706,26.6874587 C10.8004076,26.6874587 8.9887263,25.3635378 8.43128591,23.3428164 Z" id="Path" fill="#3598DB"/>
        </g>
    </g>
</svg>