<svg xmlns="http://www.w3.org/2000/svg" width="156" height="156.006" viewBox="0 0 156 156.006">
    <g id="Gruppe_2" data-name="Gruppe 2" transform="translate(0 0.006)">
        <g id="Ebene_5">
            <rect id="Rechteck_1" data-name="Rechteck 1" width="156" height="156.006" transform="translate(0 -0.006)" fill="none"/>
            <rect id="Rechteck_2" data-name="Rechteck 2" width="156" height="78" transform="translate(0 77.994)" fill="#fc0"/>
            <rect id="Rechteck_3" data-name="Rechteck 3" width="156" height="78" transform="translate(0 -0.006)" fill="#06c"/>
        </g>
        <g id="Gruppe_1" data-name="Gruppe 1">
            <path id="Differenzmenge_1" data-name="Differenzmenge 1" d="M-767.812-405.8h0a36.512,36.512,0,0,1-7.357-.8c-6.852-1.55-15.18-4.689-22.527-7.459-2.634-.993-5.118-1.929-7.336-2.717a12.359,12.359,0,0,0-4.152-.713,12.124,12.124,0,0,0-4.459.837c-.242.073-24.309,7.36-31.357,9.362a30.251,30.251,0,0,1-8.1,1.167c-5.5,0-10.023-1.721-13.454-5.118-4.559-4.513-7.065-11.931-7.448-22.049a31.041,31.041,0,0,1,.715-6.935,11.451,11.451,0,0,1,1.987-4.456c1.643-2.1,4.093-3.082,7.712-3.082,4.183,0,9.487,1.266,16.2,2.868,10.466,2.5,23.49,5.605,39.383,5.605,16.167,0,29.567-3.4,39.352-5.885,6.243-1.585,11.174-2.836,14.955-2.836,2.763,0,4.69.669,6.066,2.105,2.071,2.162,2.906,6.169,2.628,12.61-.412,9.544-2.845,16.737-7.231,21.378C-756.065-407.854-761.308-405.8-767.812-405.8Zm-91.68-27.092a16,16,0,0,0,.849,4.615,16.977,16.977,0,0,0,6.146,8.467,12.743,12.743,0,0,0,2.032.1,50.565,50.565,0,0,0,19.081-3.853c4.286-1.836,7.065-3.977,7.04-4.351a.054.054,0,0,0-.045-.05c-1.221-.339-10.661-1.658-18.364-2.7C-851.346-431.837-859.415-432.888-859.492-432.888Zm99.794-.129h0c-.014.178-24.269,3.375-32.239,4.426-1.487.2-2.47.326-2.487.329-.052.011-.08.034-.084.07-.052.5,4.695,3.351,6.163,3.981a50.294,50.294,0,0,0,19.462,4.38,20.685,20.685,0,0,0,2.3-.105c4.2-3.625,5.845-6.989,6.489-9.173A8.949,8.949,0,0,0-759.7-433.017Z" transform="translate(886.832 505.147)" fill="#fff"/>
        </g>
    </g>
</svg>
